<mxfile host="65bd71144e">
    <diagram id="WOn5wwiRH83vvZWBE0tc" name="Page-1">
        <mxGraphModel dx="1414" dy="809" grid="1" gridSize="10" guides="1" tooltips="1" connect="1" arrows="1" fold="1" page="1" pageScale="1" pageWidth="600" pageHeight="1600" background="#1A1A1A" math="0" shadow="0">
            <root>
                <mxCell id="0"/>
                <mxCell id="1" parent="0"/>
                <mxCell id="12" value="" style="swimlane;startSize=0;strokeWidth=3;strokeColor=#FFFFFF;" parent="1" vertex="1">
                    <mxGeometry x="230" y="180" width="841" height="800" as="geometry"/>
                </mxCell>
                <mxCell id="14" value="" style="swimlane;startSize=0;fontColor=#FCF5FF;strokeWidth=2;strokeColor=#FAFAFA;" parent="12" vertex="1">
                    <mxGeometry x="140" y="40" width="260" height="100" as="geometry"/>
                </mxCell>
                <mxCell id="21" style="edgeStyle=none;html=1;fontColor=#FCF5FF;" parent="14" source="15" target="20" edge="1">
                    <mxGeometry relative="1" as="geometry"/>
                </mxCell>
                <mxCell id="15" value="Prodcut Service" style="outlineConnect=0;dashed=0;verticalLabelPosition=bottom;verticalAlign=top;align=center;html=1;shape=mxgraph.aws3.android;fillColor=#115193;gradientColor=none;fontColor=#FCF5FF;" parent="14" vertex="1">
                    <mxGeometry x="20" y="15" width="43.75" height="50" as="geometry"/>
                </mxCell>
                <mxCell id="20" value="" style="outlineConnect=0;dashed=0;verticalLabelPosition=bottom;verticalAlign=top;align=center;html=1;shape=mxgraph.aws3.ms_sql_instance;fillColor=#2E73B8;gradientColor=none;fontColor=#FCF5FF;" parent="14" vertex="1">
                    <mxGeometry x="189" y="17.75" width="41.4" height="44.5" as="geometry"/>
                </mxCell>
                <mxCell id="56" style="edgeStyle=none;rounded=1;html=1;fontColor=#FCF5FF;exitX=1;exitY=0.25;exitDx=0;exitDy=0;strokeColor=#FFFFFF;" parent="12" source="22" target="54" edge="1">
                    <mxGeometry relative="1" as="geometry"/>
                </mxCell>
                <mxCell id="22" value="" style="swimlane;startSize=0;fontColor=#FCF5FF;strokeWidth=2;strokeColor=#FFFFFF;" parent="12" vertex="1">
                    <mxGeometry x="140" y="320" width="260" height="100" as="geometry"/>
                </mxCell>
                <mxCell id="23" style="edgeStyle=none;html=1;fontColor=#FCF5FF;" parent="22" source="24" target="25" edge="1">
                    <mxGeometry relative="1" as="geometry"/>
                </mxCell>
                <mxCell id="24" value="Order Service" style="outlineConnect=0;dashed=0;verticalLabelPosition=bottom;verticalAlign=top;align=center;html=1;shape=mxgraph.aws3.android;fillColor=#115193;gradientColor=none;fontColor=#FCF5FF;" parent="22" vertex="1">
                    <mxGeometry x="20" y="15" width="43.75" height="50" as="geometry"/>
                </mxCell>
                <mxCell id="25" value="" style="outlineConnect=0;dashed=0;verticalLabelPosition=bottom;verticalAlign=top;align=center;html=1;shape=mxgraph.aws3.ms_sql_instance;fillColor=#2E73B8;gradientColor=none;fontColor=#FCF5FF;" parent="22" vertex="1">
                    <mxGeometry x="189" y="17.75" width="41.4" height="44.5" as="geometry"/>
                </mxCell>
                <mxCell id="53" style="edgeStyle=none;rounded=1;html=1;exitX=1;exitY=0.5;exitDx=0;exitDy=0;fontColor=#FCF5FF;strokeColor=#FFFFFF;" parent="12" source="26" target="46" edge="1">
                    <mxGeometry relative="1" as="geometry"/>
                </mxCell>
                <mxCell id="26" value="" style="swimlane;startSize=0;fontColor=#FCF5FF;strokeWidth=2;strokeColor=#FFFFFF;" parent="12" vertex="1">
                    <mxGeometry x="140" y="450" width="260" height="100" as="geometry"/>
                </mxCell>
                <mxCell id="27" style="edgeStyle=none;html=1;fontColor=#FCF5FF;" parent="26" source="28" edge="1">
                    <mxGeometry relative="1" as="geometry">
                        <mxPoint x="189" y="40" as="targetPoint"/>
                    </mxGeometry>
                </mxCell>
                <mxCell id="28" value="Cart Service" style="outlineConnect=0;dashed=0;verticalLabelPosition=bottom;verticalAlign=top;align=center;html=1;shape=mxgraph.aws3.android;fillColor=#115193;gradientColor=none;fontColor=#FCF5FF;" parent="26" vertex="1">
                    <mxGeometry x="20" y="15" width="43.75" height="50" as="geometry"/>
                </mxCell>
                <mxCell id="30" value="" style="sketch=0;aspect=fixed;html=1;points=[];align=center;image;fontSize=12;image=img/lib/mscae/Cache_Redis_Product.svg;fontColor=#FCF5FF;" parent="26" vertex="1">
                    <mxGeometry x="190" y="23" width="50" height="42" as="geometry"/>
                </mxCell>
                <mxCell id="34" value="" style="line;strokeWidth=4;direction=south;html=1;perimeter=backbonePerimeter;points=[];outlineConnect=0;fillColor=#f9f7ed;strokeColor=#FFFFFF;" parent="12" vertex="1">
                    <mxGeometry x="520" y="40" width="10" height="740" as="geometry"/>
                </mxCell>
                <mxCell id="43" style="edgeStyle=none;html=1;exitX=1;exitY=0.5;exitDx=0;exitDy=0;fontColor=#FCF5FF;strokeColor=#FFFFFF;" parent="12" source="35" target="41" edge="1">
                    <mxGeometry relative="1" as="geometry"/>
                </mxCell>
                <mxCell id="35" value="" style="swimlane;startSize=0;fontColor=#FCF5FF;strokeWidth=2;strokeColor=#FFFFFF;" parent="12" vertex="1">
                    <mxGeometry x="140" y="170" width="260" height="100" as="geometry"/>
                </mxCell>
                <mxCell id="36" style="edgeStyle=none;html=1;fontColor=#FCF5FF;" parent="35" source="37" edge="1">
                    <mxGeometry relative="1" as="geometry">
                        <mxPoint x="189" y="40" as="targetPoint"/>
                    </mxGeometry>
                </mxCell>
                <mxCell id="37" value="Prodcut Service" style="outlineConnect=0;dashed=0;verticalLabelPosition=bottom;verticalAlign=top;align=center;html=1;shape=mxgraph.aws3.android;fillColor=#115193;gradientColor=none;fontColor=#FCF5FF;" parent="35" vertex="1">
                    <mxGeometry x="20" y="15" width="43.75" height="50" as="geometry"/>
                </mxCell>
                <mxCell id="42" value="" style="sketch=0;outlineConnect=0;fontColor=#FCF5FF;gradientColor=none;strokeColor=#ffffff;fillColor=#232F3E;dashed=0;verticalLabelPosition=middle;verticalAlign=bottom;align=center;html=1;whiteSpace=wrap;fontSize=10;fontStyle=1;spacing=3;shape=mxgraph.aws4.productIcon;prIcon=mxgraph.aws4.elasticsearch_service;" parent="35" vertex="1">
                    <mxGeometry x="190" y="15" width="50" height="40" as="geometry"/>
                </mxCell>
                <mxCell id="72" value="&lt;p style=&quot;line-height: 1.2&quot;&gt;&lt;font style=&quot;font-size: 12px&quot;&gt;elastic search&lt;/font&gt;&lt;/p&gt;" style="text;strokeColor=none;fillColor=none;html=1;fontSize=24;fontStyle=1;verticalAlign=middle;align=center;fontColor=#FCF5FF;" parent="35" vertex="1">
                    <mxGeometry x="160" y="55" width="100" height="40" as="geometry"/>
                </mxCell>
                <mxCell id="41" value="" style="sketch=0;outlineConnect=0;fontColor=#FCF5FF;gradientColor=none;fillColor=#3F8624;strokeColor=none;dashed=0;verticalLabelPosition=bottom;verticalAlign=top;align=center;html=1;fontSize=12;fontStyle=0;aspect=fixed;pointerEvents=1;shape=mxgraph.aws4.topic_2;" parent="12" vertex="1">
                    <mxGeometry x="550" y="62" width="53" height="78" as="geometry"/>
                </mxCell>
                <mxCell id="45" value="product" style="text;strokeColor=none;fillColor=none;html=1;fontSize=24;fontStyle=1;verticalAlign=middle;align=center;fontColor=#FCF5FF;" parent="12" vertex="1">
                    <mxGeometry x="603" y="81" width="100" height="40" as="geometry"/>
                </mxCell>
                <mxCell id="50" style="edgeStyle=none;html=1;entryX=1;entryY=0.5;entryDx=0;entryDy=0;fontColor=#FCF5FF;fillColor=#60a917;strokeColor=#2D7600;rounded=1;" parent="12" source="46" target="14" edge="1">
                    <mxGeometry relative="1" as="geometry"/>
                </mxCell>
                <mxCell id="51" style="edgeStyle=none;rounded=1;html=1;entryX=1;entryY=0.5;entryDx=0;entryDy=0;fontColor=#FCF5FF;fillColor=#60a917;strokeColor=#2D7600;" parent="12" source="46" target="22" edge="1">
                    <mxGeometry relative="1" as="geometry"/>
                </mxCell>
                <mxCell id="46" value="" style="sketch=0;outlineConnect=0;fontColor=#FCF5FF;gradientColor=none;fillColor=#3F8624;strokeColor=none;dashed=0;verticalLabelPosition=bottom;verticalAlign=top;align=center;html=1;fontSize=12;fontStyle=0;aspect=fixed;pointerEvents=1;shape=mxgraph.aws4.topic_2;" parent="12" vertex="1">
                    <mxGeometry x="555" y="372" width="53" height="78" as="geometry"/>
                </mxCell>
                <mxCell id="47" value="cart.checkout" style="text;strokeColor=none;fillColor=none;html=1;fontSize=24;fontStyle=1;verticalAlign=middle;align=center;fontColor=#FCF5FF;" parent="12" vertex="1">
                    <mxGeometry x="615" y="391" width="170" height="40" as="geometry"/>
                </mxCell>
                <mxCell id="57" style="edgeStyle=none;rounded=1;html=1;entryX=1;entryY=0.5;entryDx=0;entryDy=0;fontColor=#FCF5FF;fillColor=#60a917;strokeColor=#2D7600;" parent="12" source="54" target="14" edge="1">
                    <mxGeometry relative="1" as="geometry"/>
                </mxCell>
                <mxCell id="54" value="" style="sketch=0;outlineConnect=0;fontColor=#FCF5FF;gradientColor=none;fillColor=#3F8624;strokeColor=none;dashed=0;verticalLabelPosition=bottom;verticalAlign=top;align=center;html=1;fontSize=12;fontStyle=0;aspect=fixed;pointerEvents=1;shape=mxgraph.aws4.topic_2;" parent="12" vertex="1">
                    <mxGeometry x="553" y="170" width="55" height="80.94" as="geometry"/>
                </mxCell>
                <mxCell id="55" value="order.cancel" style="text;strokeColor=none;fillColor=none;html=1;fontSize=24;fontStyle=1;verticalAlign=middle;align=center;fontColor=#FCF5FF;" parent="12" vertex="1">
                    <mxGeometry x="615" y="190.47" width="155" height="40" as="geometry"/>
                </mxCell>
                <mxCell id="64" style="edgeStyle=none;rounded=1;html=1;exitX=1;exitY=0.5;exitDx=0;exitDy=0;fontColor=#FCF5FF;strokeColor=#FFFFFF;" parent="12" source="58" target="62" edge="1">
                    <mxGeometry relative="1" as="geometry"/>
                </mxCell>
                <mxCell id="58" value="" style="swimlane;startSize=0;fontColor=#FCF5FF;strokeWidth=2;strokeColor=#FFFFFF;" parent="12" vertex="1">
                    <mxGeometry x="120" y="580" width="280" height="100" as="geometry"/>
                </mxCell>
                <mxCell id="59" style="edgeStyle=none;html=1;fontColor=#FCF5FF;" parent="58" source="60" edge="1">
                    <mxGeometry relative="1" as="geometry">
                        <mxPoint x="189" y="40" as="targetPoint"/>
                    </mxGeometry>
                </mxCell>
                <mxCell id="60" value="Payment Service" style="outlineConnect=0;dashed=0;verticalLabelPosition=bottom;verticalAlign=top;align=center;html=1;shape=mxgraph.aws3.android;fillColor=#115193;gradientColor=none;fontColor=#FCF5FF;" parent="58" vertex="1">
                    <mxGeometry x="40" y="15" width="43.75" height="50" as="geometry"/>
                </mxCell>
                <mxCell id="61" value="" style="sketch=0;aspect=fixed;html=1;points=[];align=center;image;fontSize=12;image=img/lib/mscae/Cache_Redis_Product.svg;fontColor=#FCF5FF;" parent="58" vertex="1">
                    <mxGeometry x="190" y="23" width="50" height="42" as="geometry"/>
                </mxCell>
                <mxCell id="65" style="edgeStyle=none;rounded=1;html=1;entryX=1;entryY=0.5;entryDx=0;entryDy=0;fontColor=#FCF5FF;fillColor=#60a917;strokeColor=#2D7600;" parent="12" source="62" target="22" edge="1">
                    <mxGeometry relative="1" as="geometry"/>
                </mxCell>
                <mxCell id="62" value="" style="sketch=0;outlineConnect=0;fontColor=#FCF5FF;gradientColor=none;fillColor=#3F8624;strokeColor=none;dashed=0;verticalLabelPosition=bottom;verticalAlign=top;align=center;html=1;fontSize=12;fontStyle=0;aspect=fixed;pointerEvents=1;shape=mxgraph.aws4.topic_2;" parent="12" vertex="1">
                    <mxGeometry x="555" y="550" width="53" height="78" as="geometry"/>
                </mxCell>
                <mxCell id="69" style="edgeStyle=orthogonalEdgeStyle;rounded=1;html=1;entryX=0;entryY=0.5;entryDx=0;entryDy=0;fontColor=#FCF5FF;curved=1;strokeColor=#FFFFFF;" parent="12" source="63" target="68" edge="1">
                    <mxGeometry relative="1" as="geometry"/>
                </mxCell>
                <mxCell id="63" value="payment" style="text;strokeColor=none;fillColor=none;html=1;fontSize=24;fontStyle=1;verticalAlign=middle;align=center;fontColor=#FCF5FF;" parent="12" vertex="1">
                    <mxGeometry x="615" y="569" width="105" height="40" as="geometry"/>
                </mxCell>
                <mxCell id="66" value="&lt;font&gt;succeded&lt;/font&gt;" style="whiteSpace=wrap;html=1;rounded=1;arcSize=50;align=center;verticalAlign=middle;strokeWidth=1;autosize=1;spacing=4;treeFolding=1;treeMoving=1;newEdgeStyle={&quot;edgeStyle&quot;:&quot;entityRelationEdgeStyle&quot;,&quot;startArrow&quot;:&quot;none&quot;,&quot;endArrow&quot;:&quot;none&quot;,&quot;segment&quot;:10,&quot;curved&quot;:1};fontColor=#FCF5FF;fillColor=none;strokeColor=#FFFFFF;" parent="12" vertex="1">
                    <mxGeometry x="751" y="548" width="90" height="30" as="geometry"/>
                </mxCell>
                <mxCell id="67" value="" style="edgeStyle=entityRelationEdgeStyle;startArrow=none;endArrow=none;segment=10;curved=1;rounded=1;fontColor=#FCF5FF;strokeColor=#FFFFFF;" parent="12" target="66" edge="1">
                    <mxGeometry relative="1" as="geometry">
                        <mxPoint x="720" y="590" as="sourcePoint"/>
                    </mxGeometry>
                </mxCell>
                <mxCell id="68" value="&lt;font&gt;failed&lt;br&gt;&lt;/font&gt;" style="whiteSpace=wrap;html=1;rounded=1;arcSize=50;align=center;verticalAlign=middle;strokeWidth=1;autosize=1;spacing=4;treeFolding=1;treeMoving=1;newEdgeStyle={&quot;edgeStyle&quot;:&quot;entityRelationEdgeStyle&quot;,&quot;startArrow&quot;:&quot;none&quot;,&quot;endArrow&quot;:&quot;none&quot;,&quot;segment&quot;:10,&quot;curved&quot;:1};fontColor=#FCF5FF;fillColor=none;strokeColor=#FFFFFF;" parent="12" vertex="1">
                    <mxGeometry x="761" y="605" width="70" height="30" as="geometry"/>
                </mxCell>
                <mxCell id="10" style="edgeStyle=none;html=1;entryX=0;entryY=0.5;entryDx=0;entryDy=0;fontColor=#FCF5FF;strokeColor=#FFFFFF;" parent="1" source="2" target="5" edge="1">
                    <mxGeometry relative="1" as="geometry"/>
                </mxCell>
                <mxCell id="2" value="mobile application" style="html=1;verticalLabelPosition=bottom;align=center;labelBackgroundColor=none;verticalAlign=top;strokeWidth=2;strokeColor=#0080F0;shadow=0;dashed=0;shape=mxgraph.ios7.icons.smartphone;fontColor=#FCF5FF;" parent="1" vertex="1">
                    <mxGeometry x="50" y="290" width="18" height="30" as="geometry"/>
                </mxCell>
                <mxCell id="11" style="edgeStyle=none;html=1;entryX=0;entryY=0.5;entryDx=0;entryDy=0;fontColor=#FCF5FF;strokeColor=#FFFFFF;" parent="1" source="4" target="5" edge="1">
                    <mxGeometry relative="1" as="geometry"/>
                </mxCell>
                <mxCell id="4" value="web spa&lt;br&gt;" style="verticalLabelPosition=bottom;html=1;verticalAlign=top;align=center;strokeColor=none;fillColor=#00BEF2;shape=mxgraph.azure.laptop;pointerEvents=1;fontColor=#FCF5FF;" parent="1" vertex="1">
                    <mxGeometry x="34" y="450" width="50" height="30" as="geometry"/>
                </mxCell>
                <mxCell id="31" style="edgeStyle=none;html=1;entryX=0;entryY=0.5;entryDx=0;entryDy=0;fontColor=#FCF5FF;strokeColor=#FFFFFF;" parent="1" source="5" target="14" edge="1">
                    <mxGeometry relative="1" as="geometry"/>
                </mxCell>
                <mxCell id="32" style="edgeStyle=none;html=1;entryX=0;entryY=0.5;entryDx=0;entryDy=0;fontColor=#FCF5FF;strokeColor=#FFFFFF;" parent="1" source="5" target="22" edge="1">
                    <mxGeometry relative="1" as="geometry"/>
                </mxCell>
                <mxCell id="33" style="edgeStyle=none;html=1;entryX=0;entryY=0.5;entryDx=0;entryDy=0;fontColor=#FCF5FF;strokeColor=#FFFFFF;" parent="1" source="5" target="26" edge="1">
                    <mxGeometry relative="1" as="geometry"/>
                </mxCell>
                <mxCell id="39" style="edgeStyle=none;html=1;entryX=0;entryY=0.5;entryDx=0;entryDy=0;fontColor=#FCF5FF;strokeColor=#FFFFFF;" parent="1" source="5" target="35" edge="1">
                    <mxGeometry relative="1" as="geometry"/>
                </mxCell>
                <mxCell id="71" style="edgeStyle=none;html=1;entryX=0;entryY=0.5;entryDx=0;entryDy=0;fontColor=#FCF5FF;strokeColor=#FFFFFF;" parent="1" source="5" target="58" edge="1">
                    <mxGeometry relative="1" as="geometry"/>
                </mxCell>
                <mxCell id="5" value="api gateway" style="rounded=1;whiteSpace=wrap;html=1;fillColor=#f0a30a;fontColor=#000000;strokeColor=#BD7000;" parent="1" vertex="1">
                    <mxGeometry x="190" y="330" width="80" height="90" as="geometry"/>
                </mxCell>
            </root>
        </mxGraphModel>
    </diagram>
</mxfile>